<svg xmlns="http://www.w3.org/2000/svg" viewBox="0 0 32 40" x="0px" y="0px"><title>terminal, coding, linux,computing,development,</title><g data-name="Layer 9"><path d="M26.69,6H5.31A3.32,3.32,0,0,0,2,9.31V22.69A3.32,3.32,0,0,0,5.31,26H26.69A3.32,3.32,0,0,0,30,22.69V9.31A3.32,3.32,0,0,0,26.69,6ZM14.86,16.8l-5.25,4A1.08,1.08,0,0,1,9,21a1,1,0,0,1-.8-.39,1,1,0,0,1,.19-1.41L12.6,16,8.39,12.8a1,1,0,1,1,1.22-1.6l5.25,4a1,1,0,0,1,0,1.6ZM23,21H16.88a1,1,0,1,1,0-2H23a1,1,0,0,1,0,2Z"/></g><text x="0" y="47" fill="#000000" font-size="5px" font-weight="bold" font-family="'Helvetica Neue', Helvetica, Arial-Unicode, Arial, Sans-serif">Created by omeneko</text><text x="0" y="52" fill="#000000" font-size="5px" font-weight="bold" font-family="'Helvetica Neue', Helvetica, Arial-Unicode, Arial, Sans-serif">from the Noun Project</text></svg>